<svg width="48" height="70" viewBox="0 0 48 70" fill="none" xmlns="http://www.w3.org/2000/svg">
<path d="M46.3274 52.6929C45.2117 48.5304 35.6603 45.1651 23.8855 45.1651C12.1107 45.1651 2.66087 48.5304 1.54513 52.6929C1.04784 54.5481 0.482949 58.0628 0 61.4707C6.52279 66.8013 14.8559 70 23.9369 70C33.0174 70 41.3501 66.8013 47.8727 61.4708C47.3897 58.063 46.8249 54.5481 46.3274 52.6929Z" fill="#33333B"/>
<path d="M23.8983 42.662L17.8674 43.4631L18.1513 45.4721L23.8919 49.7558L29.7216 45.4721L30.0054 43.4631L23.8983 42.662Z" fill="#D4D6D8"/>
<path d="M29.8707 37.34H18.0022C19.854 42.923 18.1514 45.4721 18.1514 45.4721L22.2579 47.4432H25.6149L29.7214 45.4721C29.7214 45.4721 28.0188 42.923 29.8707 37.34Z" fill="#E2A379"/>
<path d="M23.9366 3.68781C17.2154 3.68781 11.7669 6.91769 11.7669 21.0215C11.7669 25.7924 12.6206 29.5307 13.899 32.4159C16.7116 38.7633 21.5797 40.9817 23.9366 40.9817C26.2935 40.9817 31.1616 38.7633 33.974 32.4159C35.2522 29.5307 36.106 25.7924 36.106 21.0215C36.106 6.91769 30.6574 3.68781 23.9366 3.68781Z" fill="#F4B382"/>
<path d="M25.5282 33.621C25.0749 33.5541 23.9364 34.0025 23.9364 34.0025C23.9364 34.0025 22.7819 33.5553 22.3249 33.6241C21.5928 33.7343 20.5031 34.9902 20.5031 35.1978C20.5031 35.1978 22.0403 35.9989 23.9364 35.9989C25.8325 35.9989 27.3697 35.1978 27.3697 35.1978C27.3697 35.1978 26.2715 33.7309 25.5282 33.621Z" fill="#D6876B"/>
<path d="M24.8713 34.6381C24.5736 34.622 24.1906 34.8926 23.9364 34.8926C23.6427 34.8926 23.2026 34.6251 22.8645 34.6458C20.8579 34.7694 20.5031 35.1978 20.5031 35.1978C20.5031 35.1978 22.0403 36.5902 23.9364 36.5902C25.8325 36.5902 27.3697 35.1978 27.3697 35.1978C27.3697 35.1978 26.9551 34.7499 24.8713 34.6381Z" fill="#CC785E"/>
<path d="M29.7092 45.4721C29.7092 45.4721 28.3489 48.117 23.892 48.117C19.435 48.117 18.1633 45.4721 18.1633 45.4721C18.1633 45.4721 17.0929 53.8138 23.948 53.8138C30.803 53.8138 29.7092 45.4721 29.7092 45.4721Z" fill="#7F3E09"/>
<path d="M23.8983 42.662L18.1514 45.4723C18.1514 45.4723 20.7192 49.756 23.8919 49.756C27.0645 49.756 29.7214 45.4723 29.7214 45.4723L23.8983 42.662Z" fill="#E2A379"/>
<path d="M23.9364 8.74893C27.4757 8.74893 30.3449 6.79042 30.3449 4.37447C30.3449 1.95852 27.4757 0 23.9364 0C20.3971 0 17.5279 1.95852 17.5279 4.37447C17.5279 6.79042 20.3971 8.74893 23.9364 8.74893Z" fill="#160A03"/>
<path d="M23.9364 3.68781C15.1879 3.68781 11.3222 7.51356 11.3222 21.6172C11.3222 21.6172 30.04 17.5735 30.04 12.4393C30.04 17.5735 36.5506 21.6172 36.5506 21.6172C36.5506 7.51356 32.6849 3.68781 23.9364 3.68781Z" fill="#361B09"/>
<path d="M11.9866 21.4467C10.8232 21.6457 9.93838 22.1467 10.5947 25.9857C11.2513 29.8247 12.0664 30.0033 13.2296 29.8043L11.9866 21.4467Z" fill="#F4B382"/>
<path d="M35.9013 21.4467L34.6583 29.8043C35.8218 30.0033 36.637 29.8247 37.2932 25.9857C37.9495 22.1467 37.0645 21.6457 35.9013 21.4467Z" fill="#F4B382"/>
<path d="M12.7465 22.2276C12.6813 21.8157 12.6717 21.4393 12.6826 21.137C12.6983 20.702 12.7567 20.4218 12.7567 20.4218L11.3262 20.9559C11.3236 21.1738 11.3222 21.3941 11.3222 21.617C11.3222 21.617 11.4766 21.5674 11.7493 21.473C11.7365 21.4774 11.7228 21.4823 11.7104 21.4864C11.9069 21.8206 12.1534 22.3336 12.3905 23.092C12.3905 23.0923 12.9493 23.5086 12.7465 22.2276Z" fill="#361B09"/>
<path d="M36.5466 20.9539L35.1219 20.422C35.1219 20.422 35.1808 20.7035 35.1962 21.1404C35.2069 21.4422 35.1971 21.8173 35.1321 22.2277C34.9295 23.5086 35.4882 23.0925 35.4882 23.0925C35.7248 22.3356 35.9695 21.8226 36.1644 21.4878C36.4116 21.5728 36.5504 21.6174 36.5504 21.6174C36.5506 21.3935 36.5492 21.1724 36.5466 20.9539Z" fill="#361B09"/>
<path d="M23.8919 47.4432L18.1633 45.4721C18.1633 45.4721 21.2488 66.6822 23.9479 66.6822C26.6469 66.6822 29.7091 45.4721 29.7091 45.4721L23.8919 47.4432Z" fill="#C7C8C9"/>
<path d="M23.8919 47.4432L17.5276 45.4721C17.5276 45.4721 23.9332 66.6822 23.948 66.6822L23.8919 47.4432Z" fill="#D4D6D8"/>
<path d="M30.0054 43.4631L23.9332 47.4432C23.9332 47.4432 29.1259 49.0341 29.1515 49.0086L32.7357 45.8353L30.0054 43.4631Z" fill="#F3FAFF"/>
<path d="M17.8673 43.4631L15.137 45.8355L18.7212 49.0087C18.7467 49.0342 23.9332 47.4433 23.9332 47.4433L17.8673 43.4631Z" fill="#F3FAFF"/>
<path d="M23.9364 68.9846L23.9332 66.6831C23.9332 66.6831 18.7467 49.035 18.7212 49.0095L16.078 45.009L14.1706 45.9914L15.3913 54.4251L17.8836 53.8655L16.0525 56.1036L23.9364 68.9846Z" fill="#4A4A54"/>
<path d="M33.7022 45.9903L31.7948 45.0079L29.1516 49.0086C29.1261 49.0341 23.9396 66.6822 23.9396 66.6822L23.9364 68.9837L31.8203 56.1027L29.9892 53.8646L32.4815 54.4242L33.7022 45.9903Z" fill="#4A4A54"/>
</svg>
