<svg width="51" height="70" viewBox="0 0 51 70" fill="none" xmlns="http://www.w3.org/2000/svg">
<path d="M48.9038 51.7304C47.726 47.3364 37.6434 43.784 25.2138 43.784C12.7842 43.784 2.80885 47.3364 1.63106 51.7304C1.10611 53.6888 0.509646 57.399 0 60.9964C6.88554 66.6234 15.6819 70.0001 25.2681 70.0001C34.8536 70.0001 43.6495 66.6234 50.5349 60.9965C50.0252 57.3992 49.4288 53.6888 48.9038 51.7304Z" fill="#33333B"/>
<path d="M25.2273 41.1417L18.8611 41.9874L19.1608 44.1081L25.2205 48.63L31.3743 44.1081L31.6741 41.9874L25.2273 41.1417Z" fill="#969899"/>
<path d="M25.2273 41.1417L19.1608 44.1083C19.1608 44.1083 21.8714 48.6302 25.2205 48.6302C28.5696 48.6302 31.3743 44.1083 31.3743 44.1083L25.2273 41.1417Z" fill="#7F3E09"/>
<path d="M19.5941 44.7149L19.1734 44.1081C19.1734 44.1081 19.2963 44.3616 19.5941 44.7149ZM31.0418 44.571C31.2648 44.2951 31.3614 44.1083 31.3614 44.1083L31.0418 44.571ZM25.2207 46.9002C21.9312 46.9002 20.2866 45.5361 19.5941 44.7149L25.2798 52.9137L31.0417 44.571C30.4012 45.3642 28.7111 46.9002 25.2207 46.9002Z" fill="#33333B"/>
<path d="M31.5319 35.5237H19.0034C20.9582 41.4171 19.1609 44.1081 19.1609 44.1081L23.4958 46.9002H27.0395L31.3744 44.1082C31.3744 44.1081 29.5771 41.4171 31.5319 35.5237Z" fill="#E5BA9C"/>
<path d="M31.6741 41.9873L25.2642 46.9002C25.2642 46.9002 30.7457 47.8681 30.7727 47.8412L34.5561 44.4914L31.6741 41.9873Z" fill="#F3FAFF"/>
<path d="M18.8611 41.9873L15.9788 44.4916L19.7623 47.8413C19.7893 47.8682 25.2642 46.9003 25.2642 46.9003L18.8611 41.9873Z" fill="#F3FAFF"/>
<path d="M25.2678 0C17.4167 0 11.0521 3.40951 11.0521 18.2977C11.0521 23.3339 12.0492 27.2801 13.5427 30.3257C16.828 37.0262 22.5147 39.3679 25.2678 39.3679C28.0209 39.3679 33.7075 37.0262 36.9925 30.3257C38.4859 27.2801 39.4831 23.3339 39.4831 18.2977C39.4831 3.40951 33.1185 0 25.2678 0Z" fill="#AF4B19"/>
<path d="M25.2678 0C17.4692 0 11.1372 3.36408 11.0529 18.0003C11.0524 18.0989 12.2702 18.1981 12.2702 18.2977C12.2702 23.3339 14.2609 34.0677 25.2678 34.0677C36.2746 34.0677 38.265 23.3339 38.265 18.2977C38.265 18.1844 39.4826 18.0718 39.482 17.9599C39.386 3.3578 33.0587 0 25.2678 0Z" fill="#F9C5A2"/>
<path d="M25.2677 0C25.2675 0 25.2675 0 25.2677 0H25.2674C16.4407 0 9.28503 3.40967 9.28503 18.2977C9.28503 18.2977 30.2461 18.0643 30.2461 12.6445C30.2461 18.0643 41.2499 18.2977 41.2499 18.2977C41.25 3.40967 34.0945 0 25.2677 0Z" fill="#AF4B19"/>
<path d="M29.5023 27.946C29.6691 27.946 29.8043 27.8107 29.8043 27.6439C29.8043 27.4771 29.6691 27.3419 29.5023 27.3419C29.3355 27.3419 29.2003 27.4771 29.2003 27.6439C29.2003 27.8107 29.3355 27.946 29.5023 27.946Z" fill="#C98A5F"/>
<path d="M29.5023 25.939C29.6691 25.939 29.8043 25.8038 29.8043 25.637C29.8043 25.4702 29.6691 25.335 29.5023 25.335C29.3355 25.335 29.2003 25.4702 29.2003 25.637C29.2003 25.8038 29.3355 25.939 29.5023 25.939Z" fill="#C98A5F"/>
<path d="M29.5023 23.932C29.6691 23.932 29.8043 23.7968 29.8043 23.63C29.8043 23.4632 29.6691 23.3279 29.5023 23.3279C29.3355 23.3279 29.2003 23.4632 29.2003 23.63C29.2003 23.7968 29.3355 23.932 29.5023 23.932Z" fill="#C98A5F"/>
<path d="M33.5164 27.946C33.6832 27.946 33.8184 27.8107 33.8184 27.6439C33.8184 27.4771 33.6832 27.3419 33.5164 27.3419C33.3496 27.3419 33.2144 27.4771 33.2144 27.6439C33.2144 27.8107 33.3496 27.946 33.5164 27.946Z" fill="#C98A5F"/>
<path d="M33.5164 25.939C33.6832 25.939 33.8184 25.8038 33.8184 25.637C33.8184 25.4702 33.6832 25.335 33.5164 25.335C33.3496 25.335 33.2144 25.4702 33.2144 25.637C33.2144 25.8038 33.3496 25.939 33.5164 25.939Z" fill="#C98A5F"/>
<path d="M33.5164 23.932C33.6832 23.932 33.8184 23.7968 33.8184 23.63C33.8184 23.4632 33.6832 23.3279 33.5164 23.3279C33.3496 23.3279 33.2144 23.4632 33.2144 23.63C33.2144 23.7968 33.3496 23.932 33.5164 23.932Z" fill="#C98A5F"/>
<path d="M31.5093 28.9607C31.6761 28.9607 31.8113 28.8255 31.8113 28.6587C31.8113 28.4919 31.6761 28.3567 31.5093 28.3567C31.3425 28.3567 31.2073 28.4919 31.2073 28.6587C31.2073 28.8255 31.3425 28.9607 31.5093 28.9607Z" fill="#C98A5F"/>
<path d="M31.5093 26.9537C31.6761 26.9537 31.8113 26.8185 31.8113 26.6517C31.8113 26.4849 31.6761 26.3497 31.5093 26.3497C31.3425 26.3497 31.2073 26.4849 31.2073 26.6517C31.2073 26.8185 31.3425 26.9537 31.5093 26.9537Z" fill="#C98A5F"/>
<path d="M31.5093 24.9467C31.6761 24.9467 31.8113 24.8115 31.8113 24.6447C31.8113 24.4779 31.6761 24.3427 31.5093 24.3427C31.3425 24.3427 31.2073 24.4779 31.2073 24.6447C31.2073 24.8115 31.3425 24.9467 31.5093 24.9467Z" fill="#C98A5F"/>
<path d="M31.5093 22.9398C31.6761 22.9398 31.8113 22.8045 31.8113 22.6377C31.8113 22.4709 31.6761 22.3357 31.5093 22.3357C31.3425 22.3357 31.2073 22.4709 31.2073 22.6377C31.2073 22.8045 31.3425 22.9398 31.5093 22.9398Z" fill="#C98A5F"/>
<path d="M17.0189 27.946C17.1857 27.946 17.3209 27.8107 17.3209 27.6439C17.3209 27.4771 17.1857 27.3419 17.0189 27.3419C16.8521 27.3419 16.7169 27.4771 16.7169 27.6439C16.7169 27.8107 16.8521 27.946 17.0189 27.946Z" fill="#C98A5F"/>
<path d="M17.0189 25.939C17.1857 25.939 17.3209 25.8038 17.3209 25.637C17.3209 25.4702 17.1857 25.335 17.0189 25.335C16.8521 25.335 16.7169 25.4702 16.7169 25.637C16.7169 25.8038 16.8521 25.939 17.0189 25.939Z" fill="#C98A5F"/>
<path d="M17.0189 23.932C17.1857 23.932 17.3209 23.7968 17.3209 23.63C17.3209 23.4632 17.1857 23.3279 17.0189 23.3279C16.8521 23.3279 16.7169 23.4632 16.7169 23.63C16.7169 23.7968 16.8521 23.932 17.0189 23.932Z" fill="#C98A5F"/>
<path d="M21.0329 27.946C21.1997 27.946 21.3349 27.8107 21.3349 27.6439C21.3349 27.4771 21.1997 27.3419 21.0329 27.3419C20.8661 27.3419 20.7309 27.4771 20.7309 27.6439C20.7309 27.8107 20.8661 27.946 21.0329 27.946Z" fill="#C98A5F"/>
<path d="M21.0329 25.939C21.1997 25.939 21.3349 25.8038 21.3349 25.637C21.3349 25.4702 21.1997 25.335 21.0329 25.335C20.8661 25.335 20.7309 25.4702 20.7309 25.637C20.7309 25.8038 20.8661 25.939 21.0329 25.939Z" fill="#C98A5F"/>
<path d="M21.0329 23.932C21.1997 23.932 21.3349 23.7968 21.3349 23.63C21.3349 23.4632 21.1997 23.3279 21.0329 23.3279C20.8661 23.3279 20.7309 23.4632 20.7309 23.63C20.7309 23.7968 20.8661 23.932 21.0329 23.932Z" fill="#C98A5F"/>
<path d="M19.0259 28.9607C19.1927 28.9607 19.3279 28.8255 19.3279 28.6587C19.3279 28.4919 19.1927 28.3567 19.0259 28.3567C18.8591 28.3567 18.7239 28.4919 18.7239 28.6587C18.7239 28.8255 18.8591 28.9607 19.0259 28.9607Z" fill="#C98A5F"/>
<path d="M19.0259 26.9537C19.1927 26.9537 19.3279 26.8185 19.3279 26.6517C19.3279 26.4849 19.1927 26.3497 19.0259 26.3497C18.8591 26.3497 18.7239 26.4849 18.7239 26.6517C18.7239 26.8185 18.8591 26.9537 19.0259 26.9537Z" fill="#C98A5F"/>
<path d="M19.0259 24.9467C19.1927 24.9467 19.3279 24.8115 19.3279 24.6447C19.3279 24.4779 19.1927 24.3427 19.0259 24.3427C18.8591 24.3427 18.7239 24.4779 18.7239 24.6447C18.7239 24.8115 18.8591 24.9467 19.0259 24.9467Z" fill="#C98A5F"/>
<path d="M19.0259 22.9398C19.1927 22.9398 19.3279 22.8045 19.3279 22.6377C19.3279 22.4709 19.1927 22.3357 19.0259 22.3357C18.8591 22.3357 18.7239 22.4709 18.7239 22.6377C18.7239 22.8045 18.8591 22.9398 19.0259 22.9398Z" fill="#C98A5F"/>
<path d="M11.3051 18.7558C9.94593 18.9882 8.91214 19.5736 9.67887 24.0588C10.4456 28.544 11.398 28.7527 12.7574 28.5203L11.3051 18.7558Z" fill="#F9C5A2"/>
<path d="M39.246 18.7558L37.7938 28.5203C39.1529 28.7527 40.1052 28.5441 40.8721 24.0588C41.6391 19.5736 40.6052 18.9883 39.246 18.7558Z" fill="#F9C5A2"/>
<path d="M25.2675 28.5911C21.2327 28.5911 19.1869 29.8918 19.1869 32.4569C19.1869 35.6078 22.3124 38.9403 25.2675 38.9403C28.2226 38.9403 31.3482 35.6078 31.3482 32.4569C31.3482 29.8918 29.3023 28.5911 25.2675 28.5911ZM25.2675 36.9648C23.1097 36.9648 20.6501 34.881 20.6501 32.5533C20.6501 31.9057 20.6501 29.9356 25.2675 29.9356C29.8849 29.9356 29.8849 31.9059 29.8849 32.5533C29.8849 34.881 27.4253 36.9648 25.2675 36.9648Z" fill="#AF4B19"/>
</svg>
