<svg width="51" height="70" viewBox="0 0 51 70" fill="none" xmlns="http://www.w3.org/2000/svg">
<path d="M25.2676 7.00684L9.24048 17.96V55.827H41.2947V17.96L25.2676 7.00684Z" fill="#AF4B19"/>
<path d="M48.9038 51.7304C47.726 47.3364 37.6434 43.784 25.2138 43.784C12.7842 43.784 2.80885 47.3364 1.63106 51.7304C1.10611 53.6887 0.509646 57.399 0 60.9963C6.88554 66.6233 15.6819 70 25.2681 70C34.8536 70 43.6495 66.6233 50.5349 60.9965C50.0252 57.3991 49.4288 53.6887 48.9038 51.7304Z" fill="#F9C5A2"/>
<path d="M38.0389 45.1823C34.3463 44.3002 29.9511 43.7838 25.2138 43.7838C20.5547 43.7838 16.2404 44.283 12.6052 45.1385C11.8527 48.6348 9.12756 61.3431 8.2207 66.188C13.3914 68.6313 19.1696 70 25.2681 70C31.3173 70 37.0513 68.654 42.1901 66.2476L38.0389 45.1823Z" fill="#33333B"/>
<path d="M31.5318 35.5237H19.0033C20.9581 41.4171 19.1608 44.1081 19.1608 44.1081L23.4957 45.0847H27.0394L31.3743 44.1082C31.3743 44.1081 29.577 41.4171 31.5318 35.5237Z" fill="#E5BA9C"/>
<path d="M25.2678 0C18.1728 0 12.4213 3.40951 12.4213 18.2977C12.4213 23.3339 13.3225 27.2801 14.672 30.3257C17.6409 37.0262 22.7798 39.3679 25.2678 39.3679C27.7558 39.3679 32.8946 37.0262 35.8634 30.3257C37.2127 27.2801 38.1139 23.3339 38.1139 18.2977C38.1139 3.40951 32.3624 0 25.2678 0Z" fill="#F9C5A2"/>
<path d="M29.5023 27.946C29.6691 27.946 29.8044 27.8108 29.8044 27.644C29.8044 27.4772 29.6691 27.3419 29.5023 27.3419C29.3355 27.3419 29.2003 27.4772 29.2003 27.644C29.2003 27.8108 29.3355 27.946 29.5023 27.946Z" fill="#C98A5F"/>
<path d="M29.5023 25.939C29.6691 25.939 29.8044 25.8037 29.8044 25.6369C29.8044 25.4701 29.6691 25.3349 29.5023 25.3349C29.3355 25.3349 29.2003 25.4701 29.2003 25.6369C29.2003 25.8037 29.3355 25.939 29.5023 25.939Z" fill="#C98A5F"/>
<path d="M29.5023 23.9319C29.6691 23.9319 29.8044 23.7967 29.8044 23.6299C29.8044 23.4631 29.6691 23.3279 29.5023 23.3279C29.3355 23.3279 29.2003 23.4631 29.2003 23.6299C29.2003 23.7967 29.3355 23.9319 29.5023 23.9319Z" fill="#C98A5F"/>
<path d="M33.5164 27.946C33.6832 27.946 33.8184 27.8108 33.8184 27.644C33.8184 27.4772 33.6832 27.3419 33.5164 27.3419C33.3496 27.3419 33.2144 27.4772 33.2144 27.644C33.2144 27.8108 33.3496 27.946 33.5164 27.946Z" fill="#C98A5F"/>
<path d="M33.5164 25.939C33.6832 25.939 33.8184 25.8037 33.8184 25.6369C33.8184 25.4701 33.6832 25.3349 33.5164 25.3349C33.3496 25.3349 33.2144 25.4701 33.2144 25.6369C33.2144 25.8037 33.3496 25.939 33.5164 25.939Z" fill="#C98A5F"/>
<path d="M33.5164 23.9319C33.6832 23.9319 33.8184 23.7967 33.8184 23.6299C33.8184 23.4631 33.6832 23.3279 33.5164 23.3279C33.3496 23.3279 33.2144 23.4631 33.2144 23.6299C33.2144 23.7967 33.3496 23.9319 33.5164 23.9319Z" fill="#C98A5F"/>
<path d="M31.5094 28.9608C31.6762 28.9608 31.8114 28.8255 31.8114 28.6587C31.8114 28.4919 31.6762 28.3567 31.5094 28.3567C31.3426 28.3567 31.2073 28.4919 31.2073 28.6587C31.2073 28.8255 31.3426 28.9608 31.5094 28.9608Z" fill="#C98A5F"/>
<path d="M31.5094 26.9537C31.6762 26.9537 31.8114 26.8185 31.8114 26.6517C31.8114 26.4849 31.6762 26.3497 31.5094 26.3497C31.3426 26.3497 31.2073 26.4849 31.2073 26.6517C31.2073 26.8185 31.3426 26.9537 31.5094 26.9537Z" fill="#C98A5F"/>
<path d="M31.5094 24.9467C31.6762 24.9467 31.8114 24.8115 31.8114 24.6447C31.8114 24.4779 31.6762 24.3427 31.5094 24.3427C31.3426 24.3427 31.2073 24.4779 31.2073 24.6447C31.2073 24.8115 31.3426 24.9467 31.5094 24.9467Z" fill="#C98A5F"/>
<path d="M31.5094 22.9397C31.6762 22.9397 31.8114 22.8045 31.8114 22.6377C31.8114 22.4709 31.6762 22.3357 31.5094 22.3357C31.3426 22.3357 31.2073 22.4709 31.2073 22.6377C31.2073 22.8045 31.3426 22.9397 31.5094 22.9397Z" fill="#C98A5F"/>
<path d="M17.0189 27.946C17.1857 27.946 17.321 27.8108 17.321 27.644C17.321 27.4772 17.1857 27.3419 17.0189 27.3419C16.8521 27.3419 16.7169 27.4772 16.7169 27.644C16.7169 27.8108 16.8521 27.946 17.0189 27.946Z" fill="#C98A5F"/>
<path d="M17.0189 25.939C17.1857 25.939 17.321 25.8037 17.321 25.6369C17.321 25.4701 17.1857 25.3349 17.0189 25.3349C16.8521 25.3349 16.7169 25.4701 16.7169 25.6369C16.7169 25.8037 16.8521 25.939 17.0189 25.939Z" fill="#C98A5F"/>
<path d="M17.0189 23.9319C17.1857 23.9319 17.321 23.7967 17.321 23.6299C17.321 23.4631 17.1857 23.3279 17.0189 23.3279C16.8521 23.3279 16.7169 23.4631 16.7169 23.6299C16.7169 23.7967 16.8521 23.9319 17.0189 23.9319Z" fill="#C98A5F"/>
<path d="M21.033 27.946C21.1998 27.946 21.335 27.8108 21.335 27.644C21.335 27.4772 21.1998 27.3419 21.033 27.3419C20.8662 27.3419 20.731 27.4772 20.731 27.644C20.731 27.8108 20.8662 27.946 21.033 27.946Z" fill="#C98A5F"/>
<path d="M21.033 25.939C21.1998 25.939 21.335 25.8037 21.335 25.6369C21.335 25.4701 21.1998 25.3349 21.033 25.3349C20.8662 25.3349 20.731 25.4701 20.731 25.6369C20.731 25.8037 20.8662 25.939 21.033 25.939Z" fill="#C98A5F"/>
<path d="M21.033 23.9319C21.1998 23.9319 21.335 23.7967 21.335 23.6299C21.335 23.4631 21.1998 23.3279 21.033 23.3279C20.8662 23.3279 20.731 23.4631 20.731 23.6299C20.731 23.7967 20.8662 23.9319 21.033 23.9319Z" fill="#C98A5F"/>
<path d="M19.026 28.9608C19.1928 28.9608 19.328 28.8255 19.328 28.6587C19.328 28.4919 19.1928 28.3567 19.026 28.3567C18.8592 28.3567 18.7239 28.4919 18.7239 28.6587C18.7239 28.8255 18.8592 28.9608 19.026 28.9608Z" fill="#C98A5F"/>
<path d="M19.026 26.9537C19.1928 26.9537 19.328 26.8185 19.328 26.6517C19.328 26.4849 19.1928 26.3497 19.026 26.3497C18.8592 26.3497 18.7239 26.4849 18.7239 26.6517C18.7239 26.8185 18.8592 26.9537 19.026 26.9537Z" fill="#C98A5F"/>
<path d="M19.026 24.9467C19.1928 24.9467 19.328 24.8115 19.328 24.6447C19.328 24.4779 19.1928 24.3427 19.026 24.3427C18.8592 24.3427 18.7239 24.4779 18.7239 24.6447C18.7239 24.8115 18.8592 24.9467 19.026 24.9467Z" fill="#C98A5F"/>
<path d="M19.026 22.9397C19.1928 22.9397 19.328 22.8045 19.328 22.6377C19.328 22.4709 19.1928 22.3357 19.026 22.3357C18.8592 22.3357 18.7239 22.4709 18.7239 22.6377C18.7239 22.8045 18.8592 22.9397 19.026 22.9397Z" fill="#C98A5F"/>
<path d="M26.9479 31.5979C26.4694 31.5272 25.2676 32.0006 25.2676 32.0006C25.2676 32.0006 24.0489 31.5285 23.5665 31.6011C22.7936 31.7174 21.6434 33.0432 21.6434 33.2623C21.6434 33.2623 23.2661 34.108 25.2676 34.108C27.2691 34.108 28.8918 33.2623 28.8918 33.2623C28.8918 33.2623 27.7325 31.7139 26.9479 31.5979Z" fill="#E24444"/>
<path d="M26.2545 32.6715C25.9402 32.6546 25.5359 32.9402 25.2676 32.9402C24.9575 32.9402 24.493 32.6578 24.136 32.6797C22.0179 32.8102 21.6434 33.2623 21.6434 33.2623C21.6434 33.2623 23.2661 34.7321 25.2676 34.7321C27.2691 34.7321 28.8918 33.2623 28.8918 33.2623C28.8918 33.2623 28.4542 32.7896 26.2545 32.6715Z" fill="#D33D3D"/>
<path d="M31.3615 44.1081C31.3615 44.1081 29.9255 46.9 25.2208 46.9C20.5159 46.9 19.1735 44.1081 19.1735 44.1081C19.1735 44.1081 18.0435 52.9136 25.2799 52.9136C32.5161 52.9136 31.3615 44.1081 31.3615 44.1081Z" fill="#E5BA9C"/>
<path d="M25.2274 41.1417L19.1609 44.1082C19.1609 44.1082 21.8715 48.6301 25.2206 48.6301C28.5698 48.6301 31.3744 44.1082 31.3744 44.1082L25.2274 41.1417Z" fill="#E5BA9C"/>
<path d="M25.2678 0C25.2676 0 25.2676 0 25.2678 0H25.2674C16.4408 0 9.2851 3.40967 9.2851 18.2977C9.2851 18.2977 30.2461 18.0643 30.2461 12.6445C30.2461 18.0643 41.2499 18.2977 41.2499 18.2977C41.2501 3.40967 34.0946 0 25.2678 0Z" fill="#AF4B19"/>
<path d="M12.6532 18.7466C11.4252 18.9566 10.4911 19.4854 11.1839 23.5379C11.877 27.5905 12.7375 27.7789 13.9653 27.5689L12.6532 18.7466Z" fill="#F9C5A2"/>
<path d="M37.898 18.7466L36.5859 27.5689C37.8141 27.7789 38.6746 27.5905 39.3673 23.5379C40.0601 19.4854 39.1259 18.9566 37.898 18.7466Z" fill="#F9C5A2"/>
<path d="M13.4554 19.3023C13.2875 18.2419 13.4662 17.3963 13.4662 17.3963L11.0521 18.2977C11.0521 18.2977 12.5426 18.4969 13.0796 20.2151C13.0796 20.2151 13.6695 20.6545 13.4554 19.3023Z" fill="#AF4B19"/>
<path d="M37.0752 17.3963C37.0752 17.3963 37.2538 18.2419 37.086 19.3023C36.8721 20.6544 37.4619 20.2151 37.4619 20.2151C37.9988 18.4969 39.4892 18.2977 39.4892 18.2977L37.0752 17.3963Z" fill="#AF4B19"/>
</svg>
