<svg width="66" height="82" viewBox="0 0 66 82" fill="none" xmlns="http://www.w3.org/2000/svg">
<path d="M33.9742 52.6368V47.4851C35.22 47.8638 36.1067 48.8091 36.1067 49.9154C36.1067 50.5879 36.646 51.1333 37.311 51.1333C37.976 51.1333 38.5153 50.5879 38.5153 49.9154C38.5153 47.4964 36.5659 45.4706 33.9742 44.9833V44.558C33.9742 43.8855 33.4349 43.3402 32.7699 43.3402C32.1048 43.3402 31.5656 43.8855 31.5656 44.558V44.9833C28.9739 45.4708 27.0246 47.4966 27.0246 49.9154C27.0246 52.3343 28.9739 54.3601 31.5656 54.8476V59.9994C30.3199 59.6206 29.4332 58.6752 29.4332 57.569C29.4332 56.8965 28.8939 56.3512 28.2289 56.3512C27.5638 56.3512 27.0246 56.8965 27.0246 57.569C27.0246 59.988 28.9739 62.0138 31.5656 62.5012V62.9264C31.5656 63.5989 32.1048 64.1442 32.7699 64.1442C33.4349 64.1442 33.9742 63.5989 33.9742 62.9264V62.5012C36.5659 62.0137 38.5153 59.9879 38.5153 57.569C38.5153 55.1502 36.5659 53.1242 33.9742 52.6368ZM31.5657 52.346C30.3201 51.9672 29.4333 51.022 29.4333 49.9158C29.4333 48.8096 30.3201 47.8642 31.5657 47.4854V52.346ZM33.9743 59.9995V55.1388C35.2201 55.5174 36.1069 56.4628 36.1069 57.569C36.107 58.6754 35.2201 59.6208 33.9743 59.9995Z" fill="white"/>
<path d="M58.6549 37.0456C58.2748 36.4935 57.5242 36.3574 56.9785 36.7417C56.4325 37.1261 56.2981 37.8851 56.678 38.437C60.8395 44.4828 63.1316 51.6405 63.1316 58.5916C63.1314 72.9 53.4839 79.5643 32.77 79.5643C12.0562 79.5643 2.40876 72.9 2.40876 58.5918C2.40876 50.2857 5.66959 41.7655 11.3549 35.2159C17.2565 28.4171 24.8621 24.6728 32.7702 24.6728C36.8409 24.6728 40.833 25.6626 44.6355 27.615C48.2486 29.4701 51.5224 32.098 54.3659 35.4254C54.8008 35.9341 55.5613 35.9903 56.0646 35.5507C56.5678 35.111 56.6232 34.3418 56.1885 33.8328C53.1394 30.2648 49.6193 27.4422 45.7261 25.4433C44.1018 24.6094 42.4439 23.939 40.7605 23.429C41.4127 22.7259 41.8134 21.7815 41.8134 20.7437C41.8134 19.6929 41.4027 18.7382 40.7361 18.0324C41.4028 17.3267 41.8134 16.3717 41.8134 15.3211C41.8134 13.7171 40.8577 12.3354 39.4922 11.7256C39.7025 11.382 40.0164 10.9872 40.4211 10.4884C41.8804 8.68995 43.8786 6.22658 43.8786 1.21783C43.8786 0.545334 43.3393 0 42.6743 0H22.866C22.201 0 21.6617 0.545334 21.6617 1.21783C21.6617 6.22674 23.66 8.68995 25.1191 10.4885C25.5239 10.9876 25.8377 11.3822 26.0482 11.7257C24.6826 12.3356 23.727 13.7173 23.727 15.3212C23.727 16.372 24.1377 17.3267 24.8043 18.0325C24.1375 18.7382 23.727 19.6932 23.727 20.7438C23.727 21.7815 24.1275 22.7256 24.7796 23.4287C23.141 23.925 21.5262 24.5742 19.943 25.3777C16.0843 27.3362 12.5859 30.1056 9.54461 33.6092C3.47892 40.5969 0 49.7029 0 58.5921C0 67.2156 3.31278 73.5274 9.84632 77.3521C15.1892 80.4795 22.6877 82 32.77 82C42.8525 82 50.3508 80.4795 55.6939 77.3518C62.2274 73.5272 65.5402 67.2153 65.5402 58.5918C65.54 51.1479 63.0948 43.496 58.6549 37.0456ZM37.9279 22.2368H27.6126C26.7982 22.2368 26.1356 21.5669 26.1356 20.7432C26.1356 19.9197 26.7981 19.2496 27.6126 19.2496H37.9279C38.7423 19.2496 39.4049 19.9195 39.4049 20.7432C39.4048 21.5669 38.7423 22.2368 37.9279 22.2368ZM37.9279 16.8144H27.6126C26.7982 16.8142 26.1356 16.1443 26.1356 15.3209C26.1356 14.4974 26.7981 13.8273 27.6126 13.8273H37.9279C38.7423 13.8273 39.4049 14.4972 39.4049 15.3209C39.4048 16.1445 38.7423 16.8144 37.9279 16.8144ZM24.1201 2.43535H41.4201C41.1391 5.76276 39.7215 7.51024 38.5589 8.94348C37.9154 9.73658 37.2985 10.4994 36.9871 11.3918H28.5529C28.2417 10.4994 27.6247 9.73658 26.9812 8.94348C25.8185 7.51024 24.401 5.76276 24.1201 2.43535Z" fill="white"/>
<path d="M32.77 37.5526C23.9421 37.5526 16.7601 44.8154 16.7601 53.7424C16.7601 55.3832 17.0025 57.0029 17.4801 58.5562C17.6776 59.1986 18.3526 59.5569 18.9877 59.3573C19.6228 59.1576 19.9774 58.475 19.7799 57.8328C19.3743 56.5137 19.1686 55.1377 19.1686 53.7424C19.1686 46.1583 25.2702 39.9883 32.7699 39.9883C40.2697 39.9883 46.3713 46.1585 46.3713 53.7424C46.3713 61.3263 40.2697 67.4965 32.7699 67.4965C28.2442 67.4965 24.0278 65.2293 21.4907 61.4315C21.1184 60.8742 20.3699 60.7278 19.8186 61.1042C19.2674 61.4807 19.1225 62.2378 19.4948 62.7951C22.4806 67.2641 27.4432 69.9322 32.7697 69.9322C41.5977 69.9322 48.7798 62.6694 48.7798 53.7424C48.7801 44.8156 41.5982 37.5526 32.77 37.5526Z" fill="white"/>
</svg>
