<svg width="82" height="83" viewBox="0 0 82 83" fill="none" xmlns="http://www.w3.org/2000/svg">
<path d="M67.3335 2.8407C57.097 -2.33564 44.7786 -0.310756 36.6809 7.87902C35.4342 9.1399 34.3115 10.5237 33.344 11.9921C32.9701 12.5596 33.122 13.3261 33.6832 13.7042C33.8913 13.8445 34.1265 13.9114 34.3589 13.9114C34.7535 13.9114 35.141 13.7183 35.3761 13.3612C36.2545 12.0281 37.2745 10.7711 38.4078 9.62494C45.761 2.18799 56.9464 0.348924 66.2414 5.0493C66.8447 5.35452 67.5781 5.10714 67.8797 4.49719C68.1812 3.88725 67.9368 3.14559 67.3335 2.8407Z" fill="white"/>
<path d="M74.2353 7.87916C73.2284 6.86096 72.1369 5.92005 70.991 5.08232C70.445 4.68298 69.6815 4.80692 69.2863 5.35951C68.8912 5.91211 69.0139 6.68389 69.5605 7.08339C70.6014 7.84433 71.5932 8.69954 72.5084 9.62491C81.9095 19.1316 81.9095 34.6004 72.5086 44.1071C71.3726 45.2555 70.1294 46.2867 68.813 47.172C68.2515 47.5497 68.099 48.316 68.4724 48.8838C68.7075 49.2413 69.0951 49.4347 69.4902 49.4347C69.7225 49.4347 69.9572 49.3678 70.1651 49.228C71.6158 48.2523 72.9851 47.117 74.2351 45.8532C84.5883 35.3837 84.5883 18.3485 74.2353 7.87916Z" fill="white"/>
<path d="M74.5384 25.4085C74.196 20.7988 72.225 16.457 68.9881 13.1829C65.7506 9.90989 61.4571 7.9166 56.8988 7.5704C52.3886 7.22792 47.8987 8.50888 44.2548 11.1776C43.7088 11.5776 43.5867 12.3495 43.9821 12.9018C44.3776 13.454 45.1412 13.5773 45.6871 13.1775C48.8638 10.851 52.7813 9.73379 56.7159 10.0327C60.692 10.3347 64.4372 12.0735 67.2615 14.9288C70.0852 17.7849 71.8047 21.5724 72.1033 25.5932C72.3987 29.5728 71.2944 33.5343 68.9934 36.7474C68.5982 37.3 68.7203 38.072 69.2664 38.4718C69.4828 38.6304 69.7331 38.7065 69.9816 38.7065C70.3598 38.7065 70.7327 38.5295 70.9715 38.1959C73.6103 34.5106 74.8771 29.9692 74.5384 25.4085Z" fill="white"/>
<path d="M59.7839 22.4922C54.7681 17.4201 48.0995 14.6265 41.0065 14.6265C33.9136 14.6265 27.2453 17.4199 22.2299 22.4924C20.9832 23.7533 19.8605 25.1371 18.8931 26.6055C18.5191 27.173 18.671 27.9394 19.2322 28.3176C19.7934 28.6957 20.5515 28.5421 20.9251 27.9746C21.8035 26.6415 22.8235 25.3845 23.9568 24.2383C28.5109 19.6324 34.5658 17.0957 41.0063 17.0957C47.4468 17.0957 53.5023 19.6324 58.0573 24.2383C67.4583 33.745 67.4583 49.2138 58.0574 58.7205C56.9214 59.8689 55.6782 60.9001 54.3618 61.7854C53.8003 62.1631 53.6478 62.9293 54.0213 63.4972C54.2563 63.8547 54.644 64.0481 55.039 64.0481C55.2713 64.0481 55.506 63.9812 55.714 63.8414C57.1646 62.8657 58.5339 61.7304 59.7839 60.4666C70.1369 49.9969 70.1369 32.9617 59.7839 22.4922Z" fill="white"/>
<path d="M60.0875 40.0221C59.7452 35.4122 57.7742 31.0705 54.5373 27.7964C51.2997 24.5235 47.0063 22.5302 42.448 22.184C37.9381 21.8415 33.4479 23.1225 29.8039 25.7912C29.2579 26.1911 29.1358 26.9631 29.5312 27.5154C29.9268 28.0676 30.6905 28.1909 31.2363 27.7911C34.413 25.4644 38.3298 24.3474 42.265 24.6463C46.2411 24.9483 49.9864 26.687 52.8106 29.5424C55.6343 32.3985 57.3538 36.186 57.6524 40.2067C57.9478 44.1864 56.8436 48.1477 54.5426 51.361C54.1472 51.9136 54.2692 52.6856 54.8155 53.0854C55.0318 53.244 55.2822 53.3201 55.5307 53.3201C55.9089 53.3201 56.2819 53.1431 56.5206 52.8095C59.1595 49.1241 60.426 44.5826 60.0875 40.0221Z" fill="white"/>
<path d="M45.3317 37.1048C40.3161 32.033 33.6476 29.2399 26.5547 29.2399C19.4617 29.2399 12.7932 32.033 7.77757 37.105C2.76239 42.1768 0 48.9201 0 56.0928C0 63.2655 2.76223 70.0089 7.77757 75.0808C12.7932 80.1526 19.4615 82.9459 26.5547 82.9459C33.6476 82.9459 40.3161 80.1528 45.3317 75.0808C50.3472 70.0089 53.1093 63.2655 53.1093 56.0928C53.1093 48.9201 50.3471 42.1767 45.3317 37.1048ZM43.6049 73.3349C39.0506 77.9403 32.9956 80.4766 26.5549 80.4766C20.1142 80.4766 14.0588 77.9403 9.50473 73.3349C4.95029 68.7294 2.44215 62.6062 2.44215 56.0931C2.44215 49.5801 4.95029 43.4568 9.50473 38.8512C14.059 34.2458 20.1142 31.7095 26.5549 31.7095C32.9956 31.7095 39.0508 34.2458 43.6049 38.8512C48.1593 43.4567 50.6675 49.5799 50.6675 56.0931C50.6675 62.6058 48.1593 68.7294 43.6049 73.3349Z" fill="white"/>
<path d="M40.086 42.4105C32.625 34.8659 20.4858 34.8659 13.0251 42.4105C5.56445 49.955 5.56445 62.2308 13.0251 69.7752C16.688 73.4792 21.5749 75.4485 26.5556 75.4484C28.9472 75.4484 31.3606 74.9943 33.6703 74.0603C34.2964 73.8071 34.6009 73.0886 34.3507 72.4554C34.1003 71.8223 33.3898 71.5143 32.7635 71.7673C26.5516 74.2795 19.4815 72.8121 14.7518 68.0289C8.24322 61.4472 8.24322 50.7381 14.7518 44.1564C21.2603 37.5748 31.8504 37.5748 38.359 44.1564C44.8676 50.7381 44.8676 61.4472 38.3591 68.0289C37.5575 68.8394 36.6762 69.5675 35.7393 70.193C35.1767 70.5687 35.0218 71.3346 35.3933 71.9036C35.7649 72.4727 36.5224 72.629 37.085 72.2535C38.1589 71.5366 39.1685 70.7026 40.086 69.775C47.5467 62.2308 47.5467 49.955 40.086 42.4105Z" fill="white"/>
<path d="M27.776 54.9568V48.1576C29.5564 48.577 30.859 49.8882 30.859 51.4375C30.859 52.1194 31.4054 52.6721 32.0799 52.6721C32.7544 52.6721 33.3008 52.1194 33.3008 51.4375C33.3008 48.5537 30.9146 46.149 27.7762 45.6458V44.9197C27.7762 44.2379 27.2297 43.6851 26.5553 43.6851C25.8808 43.6851 25.3344 44.2379 25.3344 44.9197V45.6458C22.1958 46.1492 19.8097 48.5538 19.8097 51.4375C19.8097 54.3211 22.1961 56.7259 25.3344 57.2293V64.0286C23.5542 63.6091 22.2514 62.2979 22.2514 60.7486C22.2514 60.0668 21.7049 59.514 21.0305 59.514C20.356 59.514 19.8096 60.0668 19.8096 60.7486C19.8096 63.6325 22.196 66.0371 25.3342 66.5403V67.2664C25.3342 67.9482 25.8807 68.501 26.5551 68.501C27.2296 68.501 27.776 67.9482 27.776 67.2664V66.5403C30.9146 66.0371 33.3006 63.6323 33.3006 60.7486C33.3006 57.865 30.9146 55.46 27.776 54.9568ZM25.3345 54.7172C23.5543 54.2978 22.2516 52.9866 22.2516 51.4373C22.2516 49.8881 23.5542 48.5768 25.3345 48.1574V54.7172ZM27.7762 64.0284V57.4685C29.5564 57.888 30.859 59.1992 30.859 60.7485C30.859 62.2977 29.5564 63.609 27.7762 64.0284Z" fill="white"/>
</svg>
