<svg width="82" height="77" viewBox="0 0 82 77" fill="none" xmlns="http://www.w3.org/2000/svg">
<path d="M54.9772 14.8107H52.6615C53.0699 14.091 53.305 13.2582 53.305 12.3705V4.91876C53.305 2.20649 51.123 0 48.4409 0H4.86411C2.18197 0.000971734 0 2.20746 0 4.91957V12.3713C0 15.0836 2.18197 17.2901 4.86411 17.2901H7.17948C6.77109 18.0098 6.53598 18.8426 6.53598 19.7303V27.182C6.53598 28.0698 6.77093 28.9025 7.17948 29.6222H4.86411C2.18197 29.622 0 31.8285 0 34.5406V41.9924C0 44.137 1.36501 45.9645 3.26206 46.6356C2.7502 47.4143 2.45103 48.3478 2.45103 49.3512V56.8029C2.45103 57.8062 2.7502 58.7397 3.26206 59.5184C1.36501 60.1896 0 62.0171 0 64.1617V71.6134C0 74.3255 2.18197 76.532 4.86411 76.532H42.2316C42.9086 76.532 43.4571 75.9772 43.4571 75.2927C43.4571 74.6083 42.9084 74.0535 42.2316 74.0535H4.86411C3.53337 74.0535 2.45103 72.9588 2.45103 71.6134V64.1617C2.45103 62.8162 3.53353 61.7215 4.86411 61.7215H7.31514H13.82H28.5615C29.2384 61.7215 29.787 61.1666 29.787 60.4822C29.787 59.7978 29.2384 59.2429 28.5615 59.2429H13.8199H7.31514C5.9844 59.2429 4.90206 58.1483 4.90206 56.8027V49.351C4.90206 48.0055 5.98456 46.9108 7.31514 46.9108H26.3284C27.0054 46.9108 27.5539 46.3559 27.5539 45.6715C27.5539 44.9871 27.0054 44.4322 26.3284 44.4322H4.86411C3.53337 44.4322 2.45103 43.3376 2.45103 41.992V34.5403C2.45103 33.1948 3.53353 32.1001 4.86411 32.1001H11.4001H21.209H33.2726C33.9496 32.1001 34.4981 31.5453 34.4981 30.8608C34.4981 30.1764 33.9496 29.6215 33.2726 29.6215H21.209H11.4001C10.0693 29.6215 8.98701 28.5269 8.98701 27.1814V19.7296C8.98701 18.3841 10.0695 17.2894 11.4001 17.2894H48.441H54.9772C56.3079 17.2894 57.3902 18.3841 57.3902 19.7296V20.6539C57.3902 21.3383 57.9388 21.8932 58.6157 21.8932C59.2927 21.8932 59.8413 21.3383 59.8413 20.6539V19.7296C59.8413 17.0172 57.6593 14.8107 54.9772 14.8107ZM50.8541 12.3713C50.8541 13.7168 49.7716 14.8115 48.441 14.8115H11.4001H4.86411C3.53337 14.8113 2.45103 13.7167 2.45103 12.3713V4.91957C2.45103 3.57404 3.53353 2.47938 4.86411 2.47938H48.441C49.7718 2.47938 50.8541 3.57404 50.8541 4.91957V12.3713Z" fill="white"/>
<path d="M69.881 26.9846C69.3142 26.6109 68.5547 26.7727 68.1852 27.3462C67.8156 27.9195 67.9758 28.6874 68.5427 29.061C75.4346 33.6027 79.549 41.2736 79.549 49.5805C79.549 63.0751 68.6921 74.0539 55.3474 74.0539C42.0026 74.0539 31.1458 63.0751 31.1458 49.5805C31.1458 36.0858 42.0026 25.107 55.3474 25.107C58.8512 25.107 62.2305 25.8471 65.391 27.307C66.0071 27.5916 66.7338 27.3171 67.0148 26.6947C67.2961 26.0721 67.0249 25.337 66.4093 25.0526C62.9268 23.444 59.2051 22.6286 55.3474 22.6286C40.6514 22.6286 28.6949 34.7192 28.6949 49.5805C28.6949 64.4417 40.6514 76.5323 55.3474 76.5323C70.0435 76.5323 82 64.4419 82 49.5806C82 40.4326 77.4697 31.9854 69.881 26.9846Z" fill="white"/>
<path d="M68.9279 35.8478C65.3004 32.1795 60.4776 30.1594 55.3478 30.1594C50.218 30.1594 45.395 32.1797 41.7676 35.8478C36.9186 40.7512 35.0183 47.9603 36.8084 54.662C36.9849 55.3228 37.6572 55.7138 38.311 55.5353C38.9643 55.3568 39.3509 54.6766 39.1744 54.0158C37.6125 48.1683 39.2703 41.8782 43.5008 37.6003C46.6652 34.4004 50.8727 32.6378 55.3479 32.6378C59.8232 32.6378 64.0306 34.4002 67.195 37.6003C73.7276 44.2063 73.7276 54.9549 67.195 61.5609C60.6625 68.1667 50.0335 68.1667 43.5008 61.5609C42.3266 60.3734 41.3386 59.0282 40.5639 57.5627C40.245 56.9591 39.5029 56.731 38.9056 57.054C38.3087 57.3764 38.0834 58.1274 38.4026 58.731C39.291 60.4118 40.4231 61.9534 41.7678 63.3132C45.5119 67.0994 50.43 68.9925 55.3481 68.9925C60.2662 68.9925 65.1841 67.0996 68.9282 63.3132C76.416 55.7411 76.416 43.42 68.9279 35.8478Z" fill="white"/>
<path d="M56.5731 48.4402V41.6157C58.3598 42.0366 59.6673 43.3527 59.6673 44.9077C59.6673 45.5922 60.2159 46.147 60.8929 46.147C61.5698 46.147 62.1184 45.5922 62.1184 44.9077C62.1184 42.0133 59.7234 39.5998 56.5733 39.0947V38.3659C56.5733 37.6814 56.0248 37.1266 55.3478 37.1266C54.6708 37.1266 54.1223 37.6814 54.1223 38.3659V39.0947C50.9721 39.6 48.577 42.0134 48.577 44.9077C48.577 47.8021 50.9721 50.2157 54.1223 50.7208V57.5453C52.3354 57.1244 51.0279 55.8083 51.0279 54.2532C51.0279 53.5688 50.4793 53.014 49.8024 53.014C49.1254 53.014 48.5768 53.5688 48.5768 54.2532C48.5768 57.1477 50.972 59.5612 54.1221 60.0663V60.7951C54.1221 61.4795 54.6706 62.0344 55.3476 62.0344C56.0246 62.0344 56.5731 61.4795 56.5731 60.7951V60.0663C59.7232 59.5612 62.1182 57.1476 62.1182 54.2532C62.1182 51.3589 59.7232 48.9453 56.5731 48.4402ZM54.1223 48.1998C52.3354 47.7789 51.0279 46.4628 51.0279 44.9077C51.0279 43.3527 52.3354 42.0368 54.1223 41.6157V48.1998ZM56.573 57.5453V50.9613C58.3597 51.3823 59.6672 52.6985 59.6672 54.2534C59.6672 55.8082 58.3597 57.1242 56.573 57.5453Z" fill="white"/>
</svg>
