<svg width="81" height="81" viewBox="0 0 81 81" fill="none" xmlns="http://www.w3.org/2000/svg">
<path d="M56.0874 24.2968C49.8817 18.0215 41.6309 14.5654 32.8549 14.5654C24.0786 14.5654 15.8278 18.0215 9.62227 24.297C9.15504 24.7694 9.15504 25.5357 9.62227 26.0081C10.0895 26.4805 10.8473 26.4805 11.3144 26.0081C17.068 20.1898 24.7178 16.9854 32.8547 16.9854C40.9915 16.9854 48.6415 20.1896 54.3951 26.0081C60.1488 31.8264 63.3174 39.5621 63.3174 47.7905C63.3174 56.0188 60.1488 63.7546 54.3951 69.5729C42.5177 81.5837 23.1918 81.5839 11.3142 69.5729C6.30081 64.5032 3.17887 57.7867 2.52356 50.6606C1.87639 43.6252 3.64547 36.5353 7.50472 30.6969C7.87196 30.1412 7.72425 29.3899 7.17487 29.0186C6.62518 28.6472 5.88225 28.7966 5.51516 29.3521C1.35173 35.651 -0.55677 43.2981 0.140943 50.8848C0.847888 58.5717 4.21519 65.8163 9.62227 71.2842C16.0275 77.7614 24.4412 81 32.8547 81C41.2685 81 49.6822 77.7614 56.0874 71.2842C62.2931 65.0087 65.7108 56.6652 65.7108 47.7906C65.7108 38.9158 62.2931 30.5722 56.0874 24.2968Z" fill="white"/>
<path d="M51.6971 28.7367C41.3074 18.2305 24.4024 18.2303 14.0128 28.7367C3.62327 39.2431 3.62327 56.3381 14.0128 66.8443C19.2075 72.0974 26.0313 74.7241 32.8549 74.7241C39.6787 74.7241 46.5023 72.0974 51.6972 66.8443C62.0867 56.3379 62.0867 39.243 51.6971 28.7367ZM50.005 65.133C40.5487 74.6956 25.1618 74.6957 15.705 65.133C6.24857 55.5704 6.24857 40.0107 15.705 30.4478C20.4333 25.6666 26.644 23.2757 32.8551 23.2757C39.0658 23.2757 45.2768 25.6664 50.0051 30.4478C59.4614 40.0105 59.4614 55.5704 50.005 65.133Z" fill="white"/>
<path d="M70.5064 9.71579C57.6959 -3.2386 36.8517 -3.2386 24.0411 9.71579C23.2627 10.503 22.5182 11.3345 21.828 12.187C21.4094 12.7041 21.4847 13.4665 21.996 13.8898C22.5074 14.313 23.2613 14.2369 23.6798 13.7197C24.3199 12.9288 25.0108 12.1574 25.7332 11.4267C37.6108 -0.58411 56.9367 -0.583952 68.8141 11.4267C80.6915 23.4377 80.6915 42.9809 68.8141 54.9917C68.0914 55.7226 67.3284 56.4212 66.5467 57.0682C66.0353 57.4913 65.9601 58.2538 66.3786 58.7709C66.6151 59.0633 66.9587 59.2146 67.3053 59.2146C67.5719 59.2146 67.8401 59.1249 68.0624 58.941C68.9054 58.2434 69.7276 57.4903 70.5061 56.703C83.3168 43.7486 83.3168 22.6703 70.5064 9.71579Z" fill="white"/>
<path d="M72.886 25.7585C72.7039 25.1163 72.0416 24.7446 71.406 24.9291C70.7708 25.1133 70.4036 25.7834 70.5856 26.4258C72.5077 33.2028 71.4673 40.4816 67.7312 46.396C67.3755 46.9591 67.5386 47.7072 68.0955 48.067C68.2951 48.196 68.5181 48.2574 68.7386 48.2574C69.1332 48.2574 69.5197 48.0599 69.748 47.6987C73.8537 41.1995 74.9973 33.2027 72.886 25.7585Z" fill="white"/>
<path d="M70.9628 20.8573C69.7045 18.391 68.0735 16.1365 66.1153 14.1563C61.798 9.7905 56.0822 7.03839 50.0206 6.40657C44.0459 5.78377 37.9835 7.23127 32.9502 10.4824C32.3933 10.8423 32.2301 11.5904 32.5859 12.1535C32.9417 12.7167 33.6815 12.8817 34.2384 12.5219C38.8181 9.56376 44.3358 8.24664 49.775 8.81374C55.2913 9.3886 60.4932 11.8936 64.4229 15.8672C66.2062 17.6706 67.691 19.7228 68.8359 21.9667C69.0484 22.3832 69.4668 22.6223 69.9002 22.6223C70.085 22.6223 70.2725 22.5789 70.4479 22.4874C71.0354 22.1811 71.2657 21.4512 70.9628 20.8573Z" fill="white"/>
<path d="M34.0515 46.6543V36.6369C36.8969 37.0899 39.0503 39.1252 39.0503 41.5614C39.0503 42.2296 39.5861 42.7714 40.2469 42.7714C40.9076 42.7714 41.4434 42.2296 41.4434 41.5614C41.4434 37.8111 38.2224 34.7019 34.0513 34.1959V32.8403C34.0513 32.1721 33.5155 31.6303 32.8548 31.6303C32.194 31.6303 31.6582 32.1721 31.6582 32.8403V34.1959C27.487 34.702 24.2661 37.8111 24.2661 41.5614C24.2661 45.3116 27.4871 48.4208 31.6582 48.9269V58.9445C28.8126 58.4915 26.6592 56.456 26.6592 54.0198C26.6592 53.3516 26.1234 52.8099 25.4627 52.8099C24.8019 52.8099 24.2661 53.3516 24.2661 54.0198C24.2661 57.7701 27.4871 60.8793 31.6582 61.3853V62.7409C31.6582 63.4091 32.194 63.9509 32.8548 63.9509C33.5155 63.9509 34.0513 63.4091 34.0513 62.7409V61.3853C38.2226 60.8792 41.4434 57.7701 41.4434 54.0198C41.4436 50.2696 38.2226 47.1604 34.0515 46.6543ZM31.6584 46.4857C28.8127 46.0327 26.6594 43.9973 26.6594 41.5612C26.6594 39.1252 28.8129 37.0898 31.6584 36.6367V46.4857ZM34.0515 58.9443V49.0954C36.8969 49.5484 39.0503 51.5837 39.0503 54.0197C39.0505 56.4558 36.8969 58.4913 34.0515 58.9443Z" fill="white"/>
</svg>
